<?xml version="1.0" standalone="no"?>
<!DOCTYPE svg PUBLIC "-//W3C//DTD SVG 20010904//EN"
 "http://www.w3.org/TR/2001/REC-SVG-20010904/DTD/svg10.dtd">
<svg version="1.0" xmlns="http://www.w3.org/2000/svg"
 width="700.000000pt" height="700.000000pt" viewBox="0 0 700.000000 700.000000"
 preserveAspectRatio="xMidYMid meet">
<metadata>
Created by potrace 1.11, written by Peter Selinger 2001-2013
</metadata>
<g transform="translate(0.000000,700.000000) scale(0.100000,-0.100000)"
fill="#000000" stroke="none">
<path d="M2327 6906 c-2 -6 -3 -310 -3 -675 l1 -663 -30 -15 c-170 -89 -469
-343 -614 -523 -29 -36 -60 -74 -69 -85 -56 -68 -172 -257 -232 -378 -87 -177
-166 -395 -195 -542 -40 -205 -47 -271 -50 -480 -4 -207 0 -268 26 -425 76
-468 301 -917 633 -1261 150 -156 299 -275 485 -388 46 -28 76 -51 65 -51 -19
0 -19 -15 -19 -667 l0 -668 1175 0 1175 0 1 665 c0 407 -4 668 -9 671 -6 4 5
15 24 25 69 35 235 150 323 222 332 274 594 647 735 1046 33 92 85 283 95 349
3 20 9 54 12 75 27 168 35 396 20 572 -32 365 -149 723 -341 1038 -178 294
-478 597 -770 777 -44 27 -82 52 -85 56 -3 4 -5 301 -4 661 0 359 -1 658 -3
664 -6 16 -2340 16 -2346 0z"/>
</g>
</svg>
